<svg width="1600" height="900" viewBox="0 0 1600 900" fill="none" xmlns="http://www.w3.org/2000/svg">
  <defs>
    <linearGradient id="bg" x1="120" y1="80" x2="1450" y2="860" gradientUnits="userSpaceOnUse">
      <stop stop-color="#08101A"/>
      <stop offset="0.55" stop-color="#0C1525"/>
      <stop offset="1" stop-color="#14243B"/>
    </linearGradient>
    <linearGradient id="panel" x1="0" y1="0" x2="0" y2="1">
      <stop stop-color="#132136" stop-opacity="0.96"/>
      <stop offset="1" stop-color="#0B1524" stop-opacity="0.96"/>
    </linearGradient>
    <linearGradient id="hero" x1="0" y1="0" x2="1" y2="1">
      <stop stop-color="#17314E"/>
      <stop offset="1" stop-color="#111D2F"/>
    </linearGradient>
    <filter id="shadow" x="-20%" y="-20%" width="140%" height="140%">
      <feDropShadow dx="0" dy="24" stdDeviation="24" flood-color="#000000" flood-opacity="0.35"/>
    </filter>
  </defs>

  <rect width="1600" height="900" fill="url(#bg)"/>
  <circle cx="240" cy="120" r="220" fill="#69B7FF" opacity="0.10"/>
  <circle cx="1430" cy="120" r="190" fill="#FFB454" opacity="0.08"/>

  <g filter="url(#shadow)">
    <rect x="30" y="30" width="410" height="840" rx="28" fill="url(#panel)" stroke="#23344E"/>
    <rect x="470" y="30" width="1100" height="160" rx="28" fill="url(#hero)" stroke="#253752"/>
    <rect x="470" y="210" width="1100" height="120" rx="28" fill="url(#panel)" stroke="#23344E"/>
    <rect x="470" y="350" width="1100" height="340" rx="28" fill="url(#panel)" stroke="#23344E"/>
    <rect x="470" y="710" width="670" height="160" rx="28" fill="url(#panel)" stroke="#23344E"/>
    <rect x="1160" y="710" width="410" height="160" rx="28" fill="url(#panel)" stroke="#23344E"/>
  </g>

  <text x="72" y="76" fill="#FFB454" font-family="Arial, sans-serif" font-size="16" letter-spacing="4">BEE3 / CONTABO LAB</text>
  <text x="72" y="132" fill="#EEF6FF" font-family="Arial, sans-serif" font-size="42" font-weight="700">Icarus MMS</text>
  <text x="72" y="176" fill="#EEF6FF" font-family="Arial, sans-serif" font-size="42" font-weight="700">Strategy Console</text>
  <text x="72" y="220" fill="#95A6BC" font-family="Arial, sans-serif" font-size="20">
    Backtest and WFO lab for the MQL5 strategy
  </text>
  <text x="72" y="248" fill="#95A6BC" font-family="Arial, sans-serif" font-size="20">
    with trade markers directly on the chart.
  </text>

  <text x="72" y="320" fill="#69B7FF" font-family="Arial, sans-serif" font-size="14" letter-spacing="3">DATASET</text>
  <rect x="72" y="338" width="326" height="48" rx="14" fill="#16263D" stroke="#2A3E5D"/>
  <text x="92" y="369" fill="#EEF6FF" font-family="Arial, sans-serif" font-size="18">uploaded_market_data.csv</text>

  <text x="72" y="430" fill="#69B7FF" font-family="Arial, sans-serif" font-size="14" letter-spacing="3">STRATEGY PARAMS</text>
  <g fill="#16263D" stroke="#2A3E5D">
    <rect x="72" y="450" width="154" height="68" rx="14"/>
    <rect x="244" y="450" width="154" height="68" rx="14"/>
    <rect x="72" y="532" width="154" height="68" rx="14"/>
    <rect x="244" y="532" width="154" height="68" rx="14"/>
    <rect x="72" y="614" width="154" height="68" rx="14"/>
    <rect x="244" y="614" width="154" height="68" rx="14"/>
  </g>
  <g font-family="Arial, sans-serif">
    <text x="88" y="474" fill="#95A6BC" font-size="12" letter-spacing="2">INITIAL</text>
    <text x="88" y="501" fill="#EEF6FF" font-size="22" font-weight="700">100000</text>
    <text x="260" y="474" fill="#95A6BC" font-size="12" letter-spacing="2">HALF LENGTH</text>
    <text x="260" y="501" fill="#EEF6FF" font-size="22" font-weight="700">12</text>
    <text x="88" y="556" fill="#95A6BC" font-size="12" letter-spacing="2">ATR PERIOD</text>
    <text x="88" y="583" fill="#EEF6FF" font-size="22" font-weight="700">200</text>
    <text x="260" y="556" fill="#95A6BC" font-size="12" letter-spacing="2">ATR MULT</text>
    <text x="260" y="583" fill="#EEF6FF" font-size="22" font-weight="700">2.8</text>
    <text x="88" y="638" fill="#95A6BC" font-size="12" letter-spacing="2">STOP LOSS</text>
    <text x="88" y="665" fill="#EEF6FF" font-size="22" font-weight="700">0.01</text>
    <text x="260" y="638" fill="#95A6BC" font-size="12" letter-spacing="2">LEVERAGE</text>
    <text x="260" y="665" fill="#EEF6FF" font-size="22" font-weight="700">0.5</text>
  </g>

  <rect x="72" y="738" width="326" height="54" rx="18" fill="#22D3AA"/>
  <text x="170" y="772" fill="#06110F" font-family="Arial, sans-serif" font-size="20" font-weight="700">RUN BACKTEST</text>
  <rect x="72" y="806" width="326" height="54" rx="18" fill="#FFB454"/>
  <text x="196" y="840" fill="#1E1008" font-family="Arial, sans-serif" font-size="20" font-weight="700">RUN WFO</text>

  <text x="512" y="78" fill="#FFB454" font-family="Arial, sans-serif" font-size="16" letter-spacing="4">TRADINGVIEW OPEN SOURCE</text>
  <text x="512" y="124" fill="#EEF6FF" font-family="Arial, sans-serif" font-size="34" font-weight="700">Trades placed exactly on the candles</text>
  <text x="512" y="162" fill="#95A6BC" font-family="Arial, sans-serif" font-size="20">
    Candles, TMA bands and entry / exit markers in one chart-first research workflow.
  </text>

  <g font-family="Arial, sans-serif">
    <rect x="494" y="232" width="165" height="76" rx="20" fill="#111E31" stroke="#23344E"/>
    <rect x="674" y="232" width="165" height="76" rx="20" fill="#111E31" stroke="#23344E"/>
    <rect x="854" y="232" width="165" height="76" rx="20" fill="#111E31" stroke="#23344E"/>
    <rect x="1034" y="232" width="165" height="76" rx="20" fill="#111E31" stroke="#23344E"/>
    <rect x="1214" y="232" width="165" height="76" rx="20" fill="#111E31" stroke="#23344E"/>
    <rect x="1394" y="232" width="152" height="76" rx="20" fill="#111E31" stroke="#23344E"/>

    <text x="516" y="257" fill="#95A6BC" font-size="12" letter-spacing="2">NET PNL</text>
    <text x="516" y="289" fill="#22D3AA" font-size="28" font-weight="700">+4.82%</text>
    <text x="696" y="257" fill="#95A6BC" font-size="12" letter-spacing="2">FINAL EQUITY</text>
    <text x="696" y="289" fill="#EEF6FF" font-size="28" font-weight="700">104,820</text>
    <text x="876" y="257" fill="#95A6BC" font-size="12" letter-spacing="2">MAX DD</text>
    <text x="876" y="289" fill="#FF7A59" font-size="28" font-weight="700">-2.14%</text>
    <text x="1056" y="257" fill="#95A6BC" font-size="12" letter-spacing="2">TRADES</text>
    <text x="1056" y="289" fill="#EEF6FF" font-size="28" font-weight="700">87</text>
    <text x="1236" y="257" fill="#95A6BC" font-size="12" letter-spacing="2">PROFIT FACTOR</text>
    <text x="1236" y="289" fill="#EEF6FF" font-size="28" font-weight="700">1.42</text>
    <text x="1416" y="257" fill="#95A6BC" font-size="12" letter-spacing="2">WINS</text>
    <text x="1416" y="289" fill="#EEF6FF" font-size="28" font-weight="700">54%</text>
  </g>

  <text x="504" y="382" fill="#95A6BC" font-family="Arial, sans-serif" font-size="14" letter-spacing="3">PRICE MAP</text>
  <rect x="504" y="404" width="1032" height="246" rx="22" fill="#0C1727" stroke="#23344E"/>

  <g stroke="#23344E" stroke-width="1">
    <line x1="550" y1="430" x2="550" y2="630"/>
    <line x1="670" y1="430" x2="670" y2="630"/>
    <line x1="790" y1="430" x2="790" y2="630"/>
    <line x1="910" y1="430" x2="910" y2="630"/>
    <line x1="1030" y1="430" x2="1030" y2="630"/>
    <line x1="1150" y1="430" x2="1150" y2="630"/>
    <line x1="1270" y1="430" x2="1270" y2="630"/>
    <line x1="1390" y1="430" x2="1390" y2="630"/>
    <line x1="510" y1="460" x2="1528" y2="460"/>
    <line x1="510" y1="515" x2="1528" y2="515"/>
    <line x1="510" y1="570" x2="1528" y2="570"/>
    <line x1="510" y1="625" x2="1528" y2="625"/>
  </g>

  <polyline points="520,572 590,554 660,548 730,520 800,526 870,484 940,505 1010,468 1080,478 1150,438 1220,451 1290,429 1360,442 1430,432 1500,422"
            fill="none" stroke="#69B7FF" stroke-width="4" stroke-linecap="round" stroke-linejoin="round"/>
  <polyline points="520,612 590,592 660,586 730,560 800,566 870,522 940,544 1010,506 1080,516 1150,478 1220,488 1290,470 1360,482 1430,474 1500,466"
            fill="none" stroke="#FF5D73" stroke-width="4" stroke-linecap="round" stroke-linejoin="round"/>

  <g>
    <rect x="566" y="538" width="18" height="54" rx="4" fill="#22D3AA"/>
    <rect x="648" y="530" width="18" height="42" rx="4" fill="#22D3AA"/>
    <rect x="730" y="502" width="18" height="60" rx="4" fill="#22D3AA"/>
    <rect x="812" y="512" width="18" height="48" rx="4" fill="#FF7A59"/>
    <rect x="894" y="478" width="18" height="70" rx="4" fill="#22D3AA"/>
    <rect x="976" y="486" width="18" height="58" rx="4" fill="#FF7A59"/>
    <rect x="1058" y="458" width="18" height="68" rx="4" fill="#22D3AA"/>
    <rect x="1140" y="448" width="18" height="78" rx="4" fill="#22D3AA"/>
    <rect x="1222" y="460" width="18" height="62" rx="4" fill="#FF7A59"/>
    <rect x="1304" y="444" width="18" height="76" rx="4" fill="#22D3AA"/>
    <rect x="1386" y="436" width="18" height="60" rx="4" fill="#22D3AA"/>
  </g>

  <g font-family="Arial, sans-serif" font-size="16" font-weight="700">
    <circle cx="736" cy="588" r="10" fill="#22D3AA"/>
    <text x="754" y="594" fill="#EEF6FF">IN L</text>
    <circle cx="986" cy="520" r="10" fill="#EF4444"/>
    <text x="1004" y="526" fill="#EEF6FF">OUT -1.2%</text>
    <circle cx="1148" cy="456" r="10" fill="#22D3AA"/>
    <text x="1166" y="462" fill="#EEF6FF">OUT +2.4%</text>
  </g>

  <text x="504" y="742" fill="#95A6BC" font-family="Arial, sans-serif" font-size="14" letter-spacing="3">TRADES</text>
  <rect x="504" y="764" width="602" height="86" rx="18" fill="#0C1727" stroke="#23344E"/>
  <text x="526" y="792" fill="#95A6BC" font-family="Arial, sans-serif" font-size="13" letter-spacing="2">ENTRY</text>
  <text x="690" y="792" fill="#95A6BC" font-family="Arial, sans-serif" font-size="13" letter-spacing="2">EXIT</text>
  <text x="834" y="792" fill="#95A6BC" font-family="Arial, sans-serif" font-size="13" letter-spacing="2">SIDE</text>
  <text x="920" y="792" fill="#95A6BC" font-family="Arial, sans-serif" font-size="13" letter-spacing="2">REASON</text>
  <text x="1020" y="792" fill="#95A6BC" font-family="Arial, sans-serif" font-size="13" letter-spacing="2">PNL</text>
  <text x="526" y="824" fill="#EEF6FF" font-family="Arial, sans-serif" font-size="16">2026-04-01 09:00</text>
  <text x="690" y="824" fill="#EEF6FF" font-family="Arial, sans-serif" font-size="16">2026-04-01 13:00</text>
  <text x="834" y="824" fill="#22D3AA" font-family="Arial, sans-serif" font-size="16" font-weight="700">LONG</text>
  <text x="920" y="824" fill="#EEF6FF" font-family="Arial, sans-serif" font-size="16">tma_auto_buy</text>
  <text x="1020" y="824" fill="#22D3AA" font-family="Arial, sans-serif" font-size="16" font-weight="700">+612.40</text>

  <text x="1194" y="742" fill="#95A6BC" font-family="Arial, sans-serif" font-size="14" letter-spacing="3">WFO WINDOWS</text>
  <rect x="1194" y="764" width="342" height="86" rx="18" fill="#0C1727" stroke="#23344E"/>
  <text x="1216" y="792" fill="#95A6BC" font-family="Arial, sans-serif" font-size="13" letter-spacing="2">WINDOW</text>
  <text x="1314" y="792" fill="#95A6BC" font-family="Arial, sans-serif" font-size="13" letter-spacing="2">HALF</text>
  <text x="1390" y="792" fill="#95A6BC" font-family="Arial, sans-serif" font-size="13" letter-spacing="2">ATR</text>
  <text x="1450" y="792" fill="#95A6BC" font-family="Arial, sans-serif" font-size="13" letter-spacing="2">LIVE%</text>
  <text x="1216" y="824" fill="#EEF6FF" font-family="Arial, sans-serif" font-size="16">12</text>
  <text x="1314" y="824" fill="#EEF6FF" font-family="Arial, sans-serif" font-size="16">12</text>
  <text x="1390" y="824" fill="#EEF6FF" font-family="Arial, sans-serif" font-size="16">200</text>
  <text x="1450" y="824" fill="#22D3AA" font-family="Arial, sans-serif" font-size="16" font-weight="700">+1.83%</text>
</svg>
